<svg width="512" height="512" viewBox="0 0 512 512" fill="none" xmlns="http://www.w3.org/2000/svg">
<rect width="512" height="512" rx="48" fill="#2563EB"/>
<path d="M109.893 243.907C96.2711 206.869 88.1431 130.835 164.605 123C188.359 123.45 232.961 143.264 221.343 218.915C238.905 208.918 251.626 207.095 255.792 207.432V345.226V388.455C92.3309 369.812 90.4171 284.322 109.893 243.907Z" fill="white"/>
<path d="M401.353 243.907C414.975 206.869 423.103 130.835 346.641 123C322.887 123.45 278.285 143.264 289.902 218.915C272.341 208.918 259.619 207.095 255.454 207.432V345.226V388.455C418.915 369.812 420.829 284.322 401.353 243.907Z" fill="white"/>
<path d="M196.197 280.027C204.544 328.438 238.135 340.951 253.887 341.155C295.374 342.138 310.451 300.813 312.804 280.027C325.815 273.147 327.635 267.536 326.919 265.59C327.165 261.658 324.976 259.037 323.851 258.218C315.75 255.761 306.564 248.798 302.984 245.624C284.082 218.101 262.377 214.292 253.887 215.828C232.038 214.599 213.893 235.18 207.551 245.624C202.887 251.276 190.878 256.375 185.457 258.218C182.266 259.938 182.286 263.849 182.695 265.59C182.941 272.471 191.799 278.082 196.197 280.027Z" fill="#11325A"/>
<path d="M193.65 264.508C206.889 275.856 239.469 281.395 254.103 282.746V223.981C230.462 222.968 209.185 254.039 207.835 256.065C206.754 257.686 197.928 262.369 193.65 264.508Z" fill="#FFBB00"/>
<path d="M314.219 264.508C300.98 275.856 268.401 281.395 253.766 282.746V223.981C277.407 222.968 298.684 254.039 300.035 256.065C301.115 257.686 309.941 262.369 314.219 264.508Z" fill="#FFBB00"/>
<path d="M214.589 306.724C222.154 325.907 244.084 331.829 254.103 332.392V304.698C252.212 304.428 226.972 305.936 214.589 306.724Z" fill="#FF702E"/>
<path d="M293.28 306.724C285.715 325.907 263.785 331.829 253.766 332.392V304.698C255.657 304.428 280.897 305.936 293.28 306.724Z" fill="#FF702E"/>
<path d="M380.513 194.292C379.973 233.468 355.521 242.362 343.363 241.911C313.643 241.911 305.762 210.165 305.537 194.292C307.428 156.196 331.542 148.923 343.363 150.049C372.542 150.319 380.288 179.657 380.513 194.292Z" fill="#10315C"/>
<path d="M342.687 186.186C341.606 195.913 335.257 199.02 332.217 199.358C328.953 199.921 322.153 198.074 321.072 186.186C319.992 174.298 328.052 172.002 332.217 172.339C336.158 172.902 343.768 176.46 342.687 186.186Z" fill="white"/>
<path d="M132.183 194.261C132.724 233.437 157.175 242.331 169.333 241.881C199.054 241.881 206.934 210.134 207.159 194.261C205.268 156.165 181.154 148.893 169.333 150.018C140.154 150.289 132.408 179.626 132.183 194.261Z" fill="#10315C"/>
<path d="M170.008 186.155C171.089 195.882 177.438 198.989 180.478 199.327C183.743 199.89 190.542 198.043 191.623 186.155C192.704 174.267 184.643 171.971 180.478 172.308C176.538 172.871 168.928 176.429 170.008 186.155Z" fill="white"/>
</svg>
